<svg width="40" height="40" viewBox="0 0 40 40" fill="none" xmlns="http://www.w3.org/2000/svg">
<rect width="40" height="40" rx="8" fill="url(#paint0_linear_601_13733)"/>
<path d="M28.125 16.6677C28.125 17.0094 27.8417 17.2927 27.5 17.2927H12.5C12.1583 17.2927 11.875 17.0094 11.875 16.6677C11.875 16.326 12.1583 16.0427 12.5 16.0427H13.35L13.6667 14.5344C13.9667 13.076 14.5917 11.7344 17.075 11.7344H22.925C25.4083 11.7344 26.0333 13.076 26.3333 14.5344L26.65 16.0427H27.5C27.8417 16.0427 28.125 16.326 28.125 16.6677Z" fill="white"/>
<path d="M28.484 21.3846C28.359 20.0096 27.9923 18.543 25.3173 18.543H14.684C12.009 18.543 11.6506 20.0096 11.5173 21.3846L11.0506 26.4596C10.9923 27.093 11.2006 27.7263 11.634 28.2013C12.0756 28.6846 12.7006 28.9596 13.3673 28.9596H14.934C16.284 28.9596 16.5423 28.1846 16.709 27.6763L16.8756 27.1763C17.0673 26.6013 17.1173 26.4596 17.8673 26.4596H22.134C22.884 26.4596 22.909 26.543 23.1256 27.1763L23.2923 27.6763C23.459 28.1846 23.7173 28.9596 25.0673 28.9596H26.634C27.2923 28.9596 27.9256 28.6846 28.3673 28.2013C28.8006 27.7263 29.009 27.093 28.9506 26.4596L28.484 21.3846ZM17.5006 23.1263H15.0006C14.659 23.1263 14.3756 22.843 14.3756 22.5013C14.3756 22.1596 14.659 21.8763 15.0006 21.8763H17.5006C17.8423 21.8763 18.1256 22.1596 18.1256 22.5013C18.1256 22.843 17.8423 23.1263 17.5006 23.1263ZM25.0006 23.1263H22.5006C22.159 23.1263 21.8756 22.843 21.8756 22.5013C21.8756 22.1596 22.159 21.8763 22.5006 21.8763H25.0006C25.3423 21.8763 25.6256 22.1596 25.6256 22.5013C25.6256 22.843 25.3423 23.1263 25.0006 23.1263Z" fill="white"/>
<defs>
<linearGradient id="paint0_linear_601_13733" x1="4.16667" y1="2.5" x2="40" y2="40" gradientUnits="userSpaceOnUse">
<stop stop-color="#FFB545"/>
<stop offset="1" stop-color="#FF7085"/>
</linearGradient>
</defs>
</svg>
